<svg width="38" height="24" viewBox="0 0 38 24" fill="none" xmlns="http://www.w3.org/2000/svg">
<path fill-rule="evenodd" clip-rule="evenodd" d="M36 0C37.1046 0 38 0.895431 38 2V22C38 23.1046 37.1046 24 36 24C34.8954 24 34 23.1046 34 22V2C34 0.89543 34.8954 0 36 0ZM19 0C20.1046 0 21 0.895431 21 2V22C21 23.1046 20.1046 24 19 24C17.8954 24 17 23.1046 17 22V2C17 0.89543 17.8954 0 19 0ZM4 2C4 0.895431 3.10457 0 2 0C0.895432 0 0 0.89543 0 2V22C0 23.1046 0.895432 24 2 24C3.10457 24 4 23.1046 4 22V2Z" fill="#999999"/>
</svg>
